<svg width="11.666748" height="15.000000" viewBox="0 0 11.6667 15" fill="none" xmlns="http://www.w3.org/2000/svg" xmlns:xlink="http://www.w3.org/1999/xlink">
	<desc>
			Created with Pixso.
	</desc>
	<defs/>
	<path id="Vector" d="M0.833252 13.3333C0.833252 13.7754 1.00903 14.1992 1.32153 14.512C1.63403 14.8245 2.05786 15 2.5 15L9.16675 15C9.60864 15 10.0327 14.8245 10.3452 14.512C10.6577 14.1992 10.8333 13.7754 10.8333 13.3333L10.8333 3.33325L0.833252 3.33325L0.833252 13.3333ZM2.5 5L9.16675 5L9.16675 13.3333L2.5 13.3333L2.5 5ZM8.75 0.833252L7.91675 0L3.75 0L2.91675 0.833252L0 0.833252L0 2.5L11.6667 2.5L11.6667 0.833252L8.75 0.833252Z" fill="#2A3440" fill-opacity="1.000000" fill-rule="nonzero"/>
</svg>
