<svg width="90" height="90" viewBox="0 0 90 90" fill="none" xmlns="http://www.w3.org/2000/svg">
<path d="M24.375 75C18.675 75 13.8125 73.0375 9.7875 69.1125C5.7625 65.1625 3.75 60.35 3.75 54.675C3.75 49.8 5.2125 45.45 8.1375 41.625C11.0875 37.8 14.9375 35.3625 19.6875 34.3125C21.2625 28.5625 24.3875 23.9125 29.0625 20.3625C33.7625 16.7875 39.075 15 45 15C52.325 15 58.525 17.55 63.6 22.65C68.7 27.725 71.25 33.925 71.25 41.25C75.575 41.75 79.15 43.625 81.975 46.875C84.825 50.075 86.25 53.825 86.25 58.125C86.25 62.825 84.6125 66.8125 81.3375 70.0875C78.0625 73.3625 74.075 75 69.375 75H48.75C46.7 75 44.9375 74.2625 43.4625 72.7875C41.9875 71.3375 41.25 69.575 41.25 67.5V48.1875L35.25 54L30 48.75L45 33.75L60 48.75L54.75 54L48.75 48.1875V67.5H69.375C72 67.5 74.2125 66.5875 76.0125 64.7625C77.8375 62.9625 78.75 60.75 78.75 58.125C78.75 55.5 77.8375 53.2875 76.0125 51.4875C74.2125 49.6625 72 48.75 69.375 48.75H63.75V41.25C63.75 36.075 61.925 31.65 58.275 27.975C54.625 24.325 50.2 22.5 45 22.5C39.825 22.5 35.4 24.325 31.725 27.975C28.075 31.65 26.25 36.075 26.25 41.25H24.375C20.75 41.25 17.6625 42.5375 15.1125 45.1125C12.5375 47.6625 11.25 50.75 11.25 54.375C11.25 58 12.5375 61.125 15.1125 63.75C17.6625 66.25 20.75 67.5 24.375 67.5H33.75V75" fill="#2A3440"/>
</svg>
