<svg width="14.000000" height="18.000000" viewBox="0 0 14 18" fill="none" xmlns="http://www.w3.org/2000/svg" xmlns:xlink="http://www.w3.org/1999/xlink">
	<desc>
			Created with Pixso.
	</desc>
	<defs/>
	<path id="Vector" d="M1 16C1 16.5305 1.21069 17.0391 1.58569 17.4143C1.96094 17.7893 2.46948 18 3 18L11 18C11.5305 18 12.0391 17.7893 12.4143 17.4143C12.7893 17.0391 13 16.5305 13 16L13 4L1 4L1 16ZM3 6L11 6L11 16L3 16L3 6ZM10.5 1L9.5 0L4.5 0L3.5 1L0 1L0 3L14 3L14 1L10.5 1Z" fill="#F45656" fill-opacity="1.000000" fill-rule="nonzero"/>
</svg>
