<svg width="82.500000" height="60.000000" viewBox="0 0 82.5 60" fill="none" xmlns="http://www.w3.org/2000/svg" xmlns:xlink="http://www.w3.org/1999/xlink">
	<desc>
			Created with Pixso.
	</desc>
	<defs/>
	<path id="Vector" d="M20.625 60C14.925 60 10.0625 58.0376 6.0376 54.1125C2.01245 50.1626 0 45.3501 0 39.675C0 34.8 1.4624 30.45 4.38745 26.625C7.3374 22.8 11.1875 20.3625 15.9375 19.3125C17.5125 13.5625 20.6375 8.9126 25.3125 5.36255C30.0125 1.7876 35.325 0 41.25 0C48.575 0 54.7749 2.55005 59.8501 7.6499C64.95 12.7251 67.5 18.925 67.5 26.25C71.825 26.75 75.3999 28.625 78.2251 31.875C81.075 35.075 82.5 38.825 82.5 43.125C82.5 47.825 80.8625 51.8125 77.5874 55.0874C74.3125 58.3625 70.325 60 65.625 60L45 60C42.95 60 41.1875 59.2625 39.7124 57.7876C38.2375 56.3374 37.5 54.575 37.5 52.5L37.5 33.1875L31.5 39L26.25 33.75L41.25 18.75L56.25 33.75L51 39L45 33.1875L45 52.5L65.625 52.5C68.25 52.5 70.4624 51.5874 72.2625 49.7625C74.0874 47.9624 75 45.75 75 43.125C75 40.5 74.0874 38.2876 72.2625 36.4875C70.4624 34.6626 68.25 33.75 65.625 33.75L60 33.75L60 26.25C60 21.075 58.175 16.6499 54.5249 12.9751C50.875 9.32495 46.45 7.5 41.25 7.5C36.075 7.5 31.6499 9.32495 27.9751 12.9751C24.325 16.6499 22.5 21.075 22.5 26.25L20.625 26.25C17 26.25 13.9126 27.5376 11.3625 30.1125C8.7876 32.6626 7.5 35.75 7.5 39.375C7.5 43 8.7876 46.125 11.3625 48.75C13.9126 51.25 17 52.5 20.625 52.5L30 52.5L30 60L20.625 60Z" fill="#2A3440" fill-opacity="1.000000" fill-rule="nonzero"/>
</svg>
