<svg width="28" height="28" viewBox="0 0 28 28" fill="none" xmlns="http://www.w3.org/2000/svg">
<path d="M14 18.6665C14.6188 18.6665 15.2123 18.9123 15.6499 19.3499C16.0875 19.7875 16.3333 20.381 16.3333 20.9998C16.3333 21.6187 16.0875 22.2122 15.6499 22.6498C15.2123 23.0873 14.6188 23.3332 14 23.3332C13.3811 23.3332 12.7876 23.0873 12.35 22.6498C11.9125 22.2122 11.6666 21.6187 11.6666 20.9998C11.6666 20.381 11.9125 19.7875 12.35 19.3499C12.7876 18.9123 13.3811 18.6665 14 18.6665ZM14 11.6665C14.6188 11.6665 15.2123 11.9123 15.6499 12.3499C16.0875 12.7875 16.3333 13.381 16.3333 13.9998C16.3333 14.6187 16.0875 15.2122 15.6499 15.6498C15.2123 16.0873 14.6188 16.3332 14 16.3332C13.3811 16.3332 12.7876 16.0873 12.35 15.6498C11.9125 15.2122 11.6666 14.6187 11.6666 13.9998C11.6666 13.381 11.9125 12.7875 12.35 12.3499C12.7876 11.9123 13.3811 11.6665 14 11.6665ZM14 4.6665C14.6188 4.6665 15.2123 4.91234 15.6499 5.34992C16.0875 5.78751 16.3333 6.381 16.3333 6.99984C16.3333 7.61868 16.0875 8.21217 15.6499 8.64975C15.2123 9.08734 14.6188 9.33317 14 9.33317C13.3811 9.33317 12.7876 9.08734 12.35 8.64975C11.9125 8.21217 11.6666 7.61868 11.6666 6.99984C11.6666 6.381 11.9125 5.78751 12.35 5.34992C12.7876 4.91234 13.3811 4.6665 14 4.6665Z" fill="#5B7E9A"/>
</svg>
